<svg enable-background="new 0 0 69.324 69.324" height="69.324" viewBox="0 0 69.324 69.324" width="69.324" xmlns="http://www.w3.org/2000/svg" xmlns:xlink="http://www.w3.org/1999/xlink"><clipPath id="a"><path d="m0 0h69.324v69.324h-69.324z"/></clipPath><clipPath id="b"><path d="m0 0h69.324v69.324h-69.324z"/></clipPath><path d="m11.607 11.609h46.108v46.108h-46.108z" fill="#fff" transform="matrix(.7071 .7071 -.7071 .7071 34.6613 -14.3565)"/><path clip-path="url(#a)" d="m11.459 11.46h46.405v46.404h-46.405z" fill="none" stroke="#ff6b00" stroke-width="2.615" transform="matrix(.7071 .7071 -.7071 .7071 34.6627 -14.3573)"/><g fill="#542a44"><path d="m42.146 23.268h4.267v.215h-4.267z" transform="matrix(.7552 .6555 -.6555 .7552 26.1649 -23.304)"/><path d="m41.793 23.674h4.267v.215h-4.267z" transform="matrix(.7552 .6555 -.6555 .7552 26.3446 -22.9728)"/><path d="m41.44 24.081h4.267v.214h-4.267z" transform="matrix(.7552 .6555 -.6555 .7552 26.5249 -22.6417)"/><path clip-path="url(#b)" d="m46.193 24.424-3.222-2.797 1.114-1.283c.212-.243.581-.27.824-.058l2.34 2.031c.243.211.269.581.057.825z"/><path clip-path="url(#b)" d="m21.873 49.18 1.549-.407-1.362-1.184z"/><path clip-path="url(#b)" d="m25.073 47.797-2.591.682.311-2.661-.479-.416-.441 3.778 3.679-.967z"/><path clip-path="url(#b)" d="m41.537 23.279-19.214 22.13.472.409.905-.05.228 1.033.002.002.959-.04.184 1.032.472.41 19.214-22.129zm-16.84 21.685-.219-.19 17.216-19.83.22.191zm1.26 1.095-.219-.19 17.217-19.831.22.191z"/></g><path clip-path="url(#b)" d="m21.936 49.112h22.199" fill="none" stroke="#542a44" stroke-miterlimit="10" stroke-width=".5"/></svg>