<svg xmlns="http://www.w3.org/2000/svg" width="45" height="45" viewBox="0 0 45 45">
  <defs>
    <style>
      .cls-1 {
        fill: #b3b3b3;
        fill-rule: evenodd;
      }
    </style>
  </defs>
  <path class="cls-1" d="M22.441,0A22.5,22.5,0,1,1,.005,22.433,22.558,22.558,0,0,1,22.441,0Zm0.975,8.656a3.669,3.669,0,0,1,3.658,3.658,3.749,3.749,0,0,1-3.658,3.658A3.658,3.658,0,0,1,23.416,8.655Zm5.243,24.63c-1.1,4.024-11.827,4.389-11.1-1.1,0.488-3.658,1.219-7.194,1.829-10.73,0.366-2.316-1.1-1.585-2.438-2.073a0.873,0.873,0,0,1,.244-1.707c1.341-.366,6.1-0.123,7.682-0.123A1.38,1.38,0,0,1,26.342,18.9a12.038,12.038,0,0,1-.244,2.073c-0.61,3.414-1.463,7.072-1.951,10.486,0,0.732.122,2.073,1.219,1.951a5.306,5.306,0,0,0,2.438-.853A0.6,0.6,0,0,1,28.659,33.285Z"/>
</svg>
