<svg height="126.362" viewBox="0 0 546.691 126.362" width="546.691" xmlns="http://www.w3.org/2000/svg" xmlns:xlink="http://www.w3.org/1999/xlink"><linearGradient id="a"><stop offset=".253" stop-color="#00aeee"/><stop offset=".527" stop-color="#00aeee"/><stop offset="1" stop-color="#0156a3"/></linearGradient><radialGradient id="b" cx="-212.751" cy="22.106" gradientTransform="matrix(2.4441 0 0 -2.4441 540.898 188.264)" gradientUnits="userSpaceOnUse" r="85.332" xlink:href="#a"/><clipPath id="c"><path d="m155.447 56.704c-2.933 2.2-5.133 5.622-5.866 9.532 5.377-.244 8.31-.978 10.999-3.177 2.444-1.955 3.666-4.155 3.666-5.866 0-.978-.733-2.689-3.422-2.689-1.467 0-3.666.733-5.377 2.2m-112.186-19.309c-1.711 6.11-3.911 14.909-6.355 23.219 9.288 0 14.909-1.711 17.842-10.754 2.444-7.577 1.466-12.465-9.532-12.465zm68.191 12.465h28.841c-3.422 10.999-19.064 20.042-23.464 28.352h18.331l-1.955 7.088h-29.574c0-11.243 18.82-24.197 22.242-29.574h-16.131zm90.433-.489c6.355 0 7.332 3.911 7.332 6.844 0 3.422-2.444 5.866-5.377 5.866-2.2 0-3.177-.978-3.422-1.222-.978-.978-1.222-1.955-1.222-2.933-.244-.978-.489-1.955-1.466-2.2-1.711-.244-2.933.489-4.399 1.711-1.955 1.711-3.422 4.399-4.644 6.844-.733 1.711-1.467 3.422-1.711 4.644l-4.399 16.62h-11.732l9.532-35.44h11.243l-1.955 7.088c2.688-3.422 7.577-7.822 12.22-7.822m-64.525 23.464c0-12.709 11.487-23.708 23.952-23.708 6.11 0 11.487 2.933 11.487 7.577 0 5.133-3.911 10.265-10.021 12.221-3.666 1.222-7.577 1.955-13.932 1.955-.244 1.222 0 1.955 0 2.689 0 3.422 2.933 6.355 6.844 6.355 5.377 0 10.51-4.888 11.243-5.621l1.955 5.377c-1.711 1.711-3.422 3.177-5.377 4.155-3.177 1.711-6.844 2.689-10.999 2.689-9.286-.002-15.152-5.623-15.152-13.689m-104.364-40.572h13.443c20.775 0 22.242 10.51 20.531 18.087-2.2 9.288-7.821 15.887-31.529 16.131-2.444 8.799-4.399 16.131-5.133 18.82h-11.733c2.2-7.822 14.421-53.038 14.421-53.038m101.676-32.263c-12.465 0-25.663 1.222-39.106 4.155-54.993 11.487-95.566 43.75-95.566 74.302 0 2.444.244 4.644.733 7.088 3.911 19.064 23.953 32.507 51.571 38.128 5.866-22.486 19.309-74.302 19.309-74.302 2.689-10.265 4.155-14.176 6.844-18.575 3.422-5.622 8.799-10.51 16.376-11.243 4.155-.489 10.265.244 13.687 2.689 3.177 2.2 3.666 4.644 3.666 6.844-.244 4.399-2.933 7.577-7.332 7.577-4.644 0-5.866-3.422-5.866-5.622 0-2.933 1.711-3.422 1.711-5.622 0-1.222-.978-2.933-3.911-2.444-3.422.489-6.355 3.422-8.31 8.066-.489 1.222-.978 2.689-1.711 5.133l-3.422 13.443h22.975c-2.933 10.754-8.066 30.063-9.532 35.44h-11.488l7.821-29.574h-11.242l-18.331 69.902c5.866.733 11.976.978 18.331.978 12.221 0 25.175-1.222 38.373-4.155 54.993-11.487 97.276-43.994 97.276-74.79 0-2.2-.244-4.644-.733-6.844-5.378-25.176-39.595-40.574-82.123-40.574z"/></clipPath><radialGradient id="d" cx="20.90339339999" cy="-7.85254259995" gradientUnits="userSpaceOnUse" r="208.5003198" xlink:href="#a"/><path d="m275.454 84.811c-11.243 0-16.865-6.844-16.865-18.087 0-8.799 3.422-18.331 9.532-24.441 4.399-4.399 10.51-7.332 17.353-7.332 11.487 0 17.109 7.332 17.109 18.331-.244 15.154-10.02 31.529-27.129 31.529zm8.554-42.283c-11.243 0-15.887 14.909-15.887 23.952 0 6.599 2.689 10.754 8.799 10.754 11.487 0 15.887-14.42 15.887-23.952-.244-6.843-2.688-10.754-8.799-10.754zm56.215 21.019-3.422 18.82c-.244 1.222-.733 1.711-1.955 1.711h-4.888c-1.466 0-1.711-.733-1.466-1.711l3.422-19.064c.244-.978.244-1.955.244-2.689 0-2.444-1.222-3.666-4.399-3.666-2.689 0-6.355 1.466-8.799 3.422l-3.911 22.242c-.244 1.222-.733 1.711-1.955 1.711h-5.133c-1.222 0-1.466-.733-1.466-1.711l5.377-30.552c.244-1.222.733-1.711 1.955-1.711h4.644c.978 0 1.711.244 1.466 1.222l-.244 1.711c3.666-2.689 8.066-4.155 11.976-4.155 6.599 0 9.043 3.666 9.043 9.288 0 1.222-.244 3.91-.489 5.132zm35.929-10.509-1.711 3.666c-.244.733-.489.978-.978.978-.244 0-.489-.244-.733-.244-2.2-.978-3.666-1.466-5.866-1.466-7.577 0-12.465 7.088-12.465 14.42 0 4.888 2.2 8.066 7.332 8.066 2.933 0 4.888-.489 7.577-1.466.244 0 .489-.244.733-.244.489 0 .733.244.733.733l.733 3.177v.489c0 .733-.489.978-1.466 1.466-3.422 1.466-6.844 2.2-10.51 2.2-9.043 0-13.932-5.133-13.932-13.443 0-11.976 8.554-22.242 21.02-22.242 3.177 0 6.355.733 9.043 1.955.489.244.733.489.733.733.001.488-.243.733-.243 1.222zm14.665 31.773c-9.288 0-13.687-6.11-13.687-13.932 0-11.732 8.31-21.508 20.531-21.508 9.288 0 13.932 6.11 13.932 13.687-.001 11.732-8.067 21.753-20.776 21.753zm5.866-28.84c-6.599 0-10.754 7.088-10.754 14.42 0 4.155 1.222 7.821 6.11 7.821 7.577 0 10.999-8.31 10.999-14.665-.245-4.155-1.711-7.576-6.355-7.576zm34.462-21.753c1.222 0 1.222.733.978 1.466l-8.31 46.683c-.244 1.222-.733 1.711-1.711 1.711h-5.377c-.733 0-1.466-.489-1.466-1.222v-.489l8.066-45.705c.244-1.222.733-1.466 1.711-1.711zm15.398 50.593c-9.288 0-13.687-6.11-13.687-13.932 0-11.732 8.31-21.508 20.531-21.508 9.288 0 13.932 6.11 13.932 13.687-.001 11.732-8.066 21.753-20.776 21.753zm5.866-28.84c-6.599 0-10.754 7.088-10.754 14.42 0 4.155 1.222 7.821 6.11 7.821 7.577 0 10.999-8.31 10.999-14.665-.245-4.155-1.467-7.576-6.355-7.576zm54.26-1.467-4.888 27.13c-2.2 11.243-7.821 17.598-19.553 17.598-3.422 0-6.844-.733-10.021-2.2-.733-.244-.978-.733-.978-1.222 0-.244 0-.489.244-.978l1.711-3.666c.244-.733.489-.978.978-.978.244 0 .733 0 .978.244 2.444.978 5.133 1.711 7.577 1.711 6.599 0 9.043-4.155 10.021-9.288l.489-2.689c-2.444 1.955-6.599 3.666-9.777 3.666-4.399 0-7.577-1.466-9.532-3.911-1.711-2.2-2.444-5.622-2.444-8.799 0-12.221 8.31-21.997 21.02-21.997 3.422 0 8.799 1.466 12.465 3.177 1.71.736 1.954 1.225 1.71 2.202zm-9.044 3.422c-1.466-1.222-4.155-1.711-6.355-1.711-6.844 0-10.51 7.577-10.51 13.443 0 1.955.244 4.399 1.466 5.866.978 1.222 2.689 1.955 4.644 1.955 2.689 0 6.11-1.711 7.821-3.422zm48.883-6.11-20.286 36.173c-4.644 8.31-9.043 11.243-17.353 11.243-1.222 0-2.444 0-3.666-.244s-.978-.978-.733-1.711l1.222-3.666c.244-.978.733-1.222 1.466-1.222.978 0 1.711.244 2.689.244 4.399 0 6.355-1.466 8.31-4.888l1.955-3.177-6.844-32.751c-.244-.733 0-1.466 1.222-1.466h6.599c.978 0 1.466.489 1.466 1.222l3.666 23.219 11.243-22.73c.489-1.222 1.222-1.711 2.444-1.711h5.621c.733 0 .978.244.978.733.246.243.246.487.001.732z" fill="#0093cf"/><path d="m155.447 56.704c-2.933 2.2-5.133 5.622-5.866 9.532 5.377-.244 8.31-.978 10.999-3.177 2.444-1.955 3.666-4.155 3.666-5.866 0-.978-.733-2.689-3.422-2.689-1.467 0-3.666.733-5.377 2.2m-112.186-19.309c-1.711 6.11-3.911 14.909-6.355 23.219 9.288 0 14.909-1.711 17.842-10.754 2.444-7.577 1.466-12.465-9.532-12.465zm68.191 12.465h28.841c-3.422 10.999-19.064 20.042-23.464 28.352h18.331l-1.955 7.088h-29.574c0-11.243 18.82-24.197 22.242-29.574h-16.131zm90.433-.489c6.355 0 7.332 3.911 7.332 6.844 0 3.422-2.444 5.866-5.377 5.866-2.2 0-3.177-.978-3.422-1.222-.978-.978-1.222-1.955-1.222-2.933-.244-.978-.489-1.955-1.466-2.2-1.711-.244-2.933.489-4.399 1.711-1.955 1.711-3.422 4.399-4.644 6.844-.733 1.711-1.467 3.422-1.711 4.644l-4.399 16.62h-11.732l9.532-35.44h11.243l-1.955 7.088c2.688-3.422 7.577-7.822 12.22-7.822m-64.525 23.464c0-12.709 11.487-23.708 23.952-23.708 6.11 0 11.487 2.933 11.487 7.577 0 5.133-3.911 10.265-10.021 12.221-3.666 1.222-7.577 1.955-13.932 1.955-.244 1.222 0 1.955 0 2.689 0 3.422 2.933 6.355 6.844 6.355 5.377 0 10.51-4.888 11.243-5.621l1.955 5.377c-1.711 1.711-3.422 3.177-5.377 4.155-3.177 1.711-6.844 2.689-10.999 2.689-9.286-.002-15.152-5.623-15.152-13.689m-104.364-40.572h13.443c20.775 0 22.242 10.51 20.531 18.087-2.2 9.288-7.821 15.887-31.529 16.131-2.444 8.799-4.399 16.131-5.133 18.82h-11.733c2.2-7.822 14.421-53.038 14.421-53.038m101.676-32.263c-12.465 0-25.663 1.222-39.106 4.155-54.993 11.487-95.566 43.75-95.566 74.302 0 2.444.244 4.644.733 7.088 3.911 19.064 23.953 32.507 51.571 38.128 5.866-22.486 19.309-74.302 19.309-74.302 2.689-10.265 4.155-14.176 6.844-18.575 3.422-5.622 8.799-10.51 16.376-11.243 4.155-.489 10.265.244 13.687 2.689 3.177 2.2 3.666 4.644 3.666 6.844-.244 4.399-2.933 7.577-7.332 7.577-4.644 0-5.866-3.422-5.866-5.622 0-2.933 1.711-3.422 1.711-5.622 0-1.222-.978-2.933-3.911-2.444-3.422.489-6.355 3.422-8.31 8.066-.489 1.222-.978 2.689-1.711 5.133l-3.422 13.443h22.975c-2.933 10.754-8.066 30.063-9.532 35.44h-11.488l7.821-29.574h-11.242l-18.331 69.902c5.866.733 11.976.978 18.331.978 12.221 0 25.175-1.222 38.373-4.155 54.993-11.487 97.276-43.994 97.276-74.79 0-2.2-.244-4.644-.733-6.844-5.378-25.176-39.595-40.574-82.123-40.574z" fill="url(#b)"/><path clip-path="url(#c)" d="m0 0h217.528v126.362h-217.528z" fill="url(#d)"/></svg>