<svg height="110.719" viewBox="0 0 403.046 110.719" width="403.046" xmlns="http://www.w3.org/2000/svg"><path d="m188.443 75.279c0-3.666 2.689-6.844 7.332-6.844 5.622 0 6.844 2.2 7.821 4.888l1.222 3.177h.978l.489-9.288c-1.711-.489-7.088-.978-9.288-.978-10.999 0-15.642 6.844-15.642 11.732 0 12.709 19.797 10.754 19.797 21.997 0 5.133-4.399 7.332-8.799 7.332-2.444 0-4.644-.733-5.622-1.711-.733-.489-2.444-3.911-3.177-7.088h-.978l-.489 10.51c2.2.244 4.888.733 8.066.733 14.176 0 17.842-6.844 17.842-12.221.245-14.417-19.552-11.729-19.552-22.239m49.86 26.886c-1.466 1.466-3.911 3.422-6.599 3.422-1.711 0-4.399-1.466-4.399-5.622v-30.063h10.265v-2.444h-10.265v-10.51h-1.222c-1.711 5.377-7.821 10.021-12.709 11.243v1.711h7.088v14.909c0 4.888-.244 12.465-.244 16.62 0 7.332 4.644 8.31 6.844 8.31 3.911 0 6.844-1.222 12.465-5.866zm39.106-19.553c1.955 0 2.689-.733 2.689-2.689 0-7.821-4.888-13.687-15.642-13.687-13.687 0-20.531 11.487-20.531 22.242 0 12.465 7.577 21.264 18.82 21.264 6.11 0 11.732-1.711 15.887-6.355l-1.222-1.711c-2.689 2.689-6.11 3.911-10.021 3.911-10.51 0-15.398-10.021-15.398-20.042 0-.978 0-1.955.244-2.933m10.509-14.665c6.355 0 9.043 4.399 9.043 10.265v1.711c-1.466 0-2.689 0-5.377.244l-14.176.244c1.223-7.576 5.133-12.464 10.51-12.464m33.729 31.285v-35.44c0-6.11.244-12.221.489-18.087-4.888.489-9.777.733-14.665.733v1.222l5.377 1.711c.733.244 1.222.489 1.466.978.244.733.733 3.911.733 7.577v41.306c0 4.399-.244 5.866-3.177 6.844l-4.155 1.466v1.222c3.422-.244 6.844-.733 10.51-.733s7.332.244 10.999.733v-1.222l-4.399-1.466c-2.933-.978-3.178-2.445-3.178-6.844m27.863 6.843c-2.689-.978-2.933-2.444-2.933-6.844v-35.44c0-6.11.244-12.221.489-18.087-4.888.489-9.777.733-14.665.733v1.222l5.377 1.711c.733.244 1.222.489 1.466.978.244.733.733 3.911.733 7.577v41.306c0 4.399-.244 5.866-3.177 6.844l-4.155 1.466v1.222c3.177-.244 6.844-.733 10.51-.733s7.332.244 10.999.733v-1.222zm40.573-4.399v-24.93c0-8.31-6.355-10.754-13.443-10.754-6.844 0-12.221 3.666-16.376 10.265l2.2 1.222c2.689-3.911 6.844-6.844 11.976-6.844 5.133 0 9.043 1.955 9.043 8.554v4.644h-.733c-14.665 0-25.175 4.644-25.175 14.665 0 7.577 5.377 10.999 11.732 10.999 6.599 0 10.265-3.911 13.932-8.554h.244l-.244 7.577c2.2-.244 4.399-.733 6.599-.733s4.644.244 6.844.733v-.978c-5.621-1.222-6.599-1.711-6.599-5.866m-6.599-8.066c0 7.088-4.644 11.243-10.51 11.243-5.133 0-7.577-2.933-7.577-7.821 0-9.532 10.754-10.999 18.087-10.999zm-188.443 8.066v-24.93c0-8.31-6.355-10.754-13.443-10.754-6.844 0-12.221 3.666-16.376 10.265l2.2 1.222c2.689-3.911 6.844-6.844 11.976-6.844 5.133 0 9.043 1.955 9.043 8.554v4.644h-.733c-14.665 0-25.175 4.644-25.175 14.665 0 7.577 5.377 10.999 11.732 10.999 6.599 0 10.265-3.911 13.932-8.554h.244l-.244 7.577c2.2-.244 4.399-.733 6.599-.733s4.644.244 6.844.733v-.978c-5.621-1.222-6.599-1.711-6.599-5.866m-6.599-8.066c0 7.088-4.644 11.243-10.51 11.243-5.133 0-7.577-2.933-7.577-7.821 0-9.532 10.754-10.999 18.087-10.999zm220.216-18.331c0-3.666 2.689-6.844 7.332-6.844 5.622 0 6.844 2.2 7.821 4.888l1.222 3.177h.978l.489-9.288c-1.711-.489-7.088-.978-9.288-.978-10.999 0-15.642 6.844-15.642 11.732 0 12.709 19.797 10.754 19.797 21.997 0 5.133-4.399 7.332-8.799 7.332-2.444 0-4.644-.733-5.621-1.711-.733-.489-2.444-3.911-3.177-7.088h-.978l-.489 10.51c2.2.244 4.888.733 8.066.733 14.176 0 17.842-6.844 17.842-12.221.489-14.417-19.553-11.729-19.553-22.239" fill="#919195"/><path d="m120.251 44.483c-9.532 8.31-23.219 16.131-36.662 23.952-3.422 16.131-7.332 31.774-14.176 42.284 14.909-7.332 29.574-26.885 37.395-43.506 7.577 1.711 14.909 6.355 19.553 10.265.978-12.953-1.955-23.463-6.11-32.995m-13.687-44.483c-6.11 5.377-10.021 14.42-13.443 25.175 7.332 1.955 14.176 3.666 20.286 4.644-4.643-9.777-8.309-19.309-6.843-29.819" fill="#a7a7aa"/><path d="m0 11.243c28.108 3.666 52.549 18.82 69.902 39.595-10.754 11.487-25.175 31.04-28.352 50.349 7.821-12.221 24.93-22.73 42.283-32.751 3.177-14.909 5.621-30.307 9.532-43.017-29.084-7.821-65.746-19.797-93.365-14.176m113.408 18.575c2.2 4.644 4.644 9.532 6.844 14.665 5.133-4.644 9.288-9.288 11.243-14.42-4.4 1.222-10.755.977-18.087-.245" fill="#d21f44"/><path d="m113.408 29.818c-6.11-.978-12.954-2.689-20.286-4.644-3.911 12.954-6.355 28.352-9.532 43.017 13.443-7.821 27.13-15.642 36.662-23.952-2.2-4.888-4.645-9.777-6.844-14.421" fill="#a72a4e"/></svg>